<svg width="21" height="38" viewBox="0 0 21 38" fill="none" xmlns="http://www.w3.org/2000/svg">
<path d="M5.28 31.784C3.97867 31.784 2.99733 31.5707 2.336 31.144C1.67467 30.7173 1.33333 30.0133 1.312 29.032C1.312 28.8187 1.42933 28.712 1.664 28.712C1.856 28.712 2.144 28.7653 2.528 28.872C2.93333 28.9573 3.69067 29 4.8 29C6.67733 29 8.40533 28.808 9.984 28.424C11.5627 28.0187 12.928 27.4853 14.08 26.824C15.2533 26.1413 16.16 25.384 16.8 24.552C17.44 23.6987 17.76 22.8133 17.76 21.896C17.76 21.064 17.504 20.4027 16.992 19.912C16.5013 19.4 15.84 19.016 15.008 18.76C14.1973 18.4827 13.3013 18.3013 12.32 18.216C11.36 18.1307 10.4107 18.088 9.472 18.088C9.06667 18.088 8.66133 18.0987 8.256 18.12C7.85067 18.12 7.46667 18.12 7.104 18.12C6.63467 19.7413 6.176 21.416 5.728 23.144C5.28 24.872 4.81067 26.568 4.32 28.232C3.68 28.232 3.12533 28.0613 2.656 27.72C2.18667 27.3787 1.952 26.9627 1.952 26.472C1.952 26.28 1.984 26.0347 2.048 25.736C2.13333 25.416 2.25067 25.0427 2.4 24.616C2.528 24.2107 2.74133 23.5387 3.04 22.6C3.36 21.6613 3.73333 20.552 4.16 19.272C4.58667 17.992 5.056 16.648 5.568 15.24C6.10133 13.8107 6.64533 12.4133 7.2 11.048C7.776 9.68267 8.34133 8.456 8.896 7.368C8.04267 7.56 7.33867 7.784 6.784 8.04C6.22933 8.296 5.792 8.52 5.472 8.712C5.152 8.904 4.90667 9 4.736 9C4.608 9 4.43733 8.92533 4.224 8.776C4.032 8.62667 3.85067 8.456 3.68 8.264C3.53067 8.072 3.456 7.90133 3.456 7.752C4.608 7.28267 5.80267 6.86667 7.04 6.504C8.27733 6.14133 9.77067 5.96 11.52 5.96C12.288 5.96 13.1307 6.024 14.048 6.152C14.9653 6.25867 15.84 6.49333 16.672 6.856C17.504 7.19733 18.1867 7.72 18.72 8.424C19.2747 9.10667 19.552 10.024 19.552 11.176C19.552 12.0933 19.3493 12.8933 18.944 13.576C18.56 14.2373 18.0373 14.8133 17.376 15.304C16.7147 15.7733 15.9893 16.168 15.2 16.488C14.4107 16.7867 13.632 17.032 12.864 17.224C14.1867 17.3947 15.2853 17.672 16.16 18.056C17.056 18.4187 17.76 18.8453 18.272 19.336C18.8053 19.8267 19.1787 20.3387 19.392 20.872C19.6267 21.384 19.744 21.8853 19.744 22.376C19.744 23.6347 19.4133 24.7653 18.752 25.768C18.0907 26.7707 17.216 27.6453 16.128 28.392C15.0613 29.1387 13.8773 29.7573 12.576 30.248C11.296 30.76 10.016 31.144 8.736 31.4C7.456 31.656 6.304 31.784 5.28 31.784ZM7.424 16.904C8.61867 16.8613 9.792 16.7227 10.944 16.488C12.096 16.2533 13.1307 15.912 14.048 15.464C14.9867 14.9947 15.7333 14.3973 16.288 13.672C16.8427 12.9253 17.12 12.008 17.12 10.92C17.12 9.896 16.8427 9.10667 16.288 8.552C15.7333 7.99733 15.008 7.61333 14.112 7.4C13.216 7.18667 12.256 7.08 11.232 7.08C11.2107 7.08 11.1893 7.08 11.168 7.08C11.1467 7.08 11.1253 7.08 11.104 7.08C10.3787 8.50933 9.71733 10.0667 9.12 11.752C8.52267 13.416 7.95733 15.1333 7.424 16.904Z" fill="white"/>
</svg>
