<svg width="144" height="38" viewBox="0 0 144 38" fill="none" xmlns="http://www.w3.org/2000/svg">
<path d="M5.28 31.784C3.97867 31.784 2.99733 31.5707 2.336 31.144C1.67467 30.7173 1.33333 30.0133 1.312 29.032C1.312 28.8187 1.42933 28.712 1.664 28.712C1.856 28.712 2.144 28.7653 2.528 28.872C2.93333 28.9573 3.69067 29 4.8 29C6.67733 29 8.40533 28.808 9.984 28.424C11.5627 28.0187 12.928 27.4853 14.08 26.824C15.2533 26.1413 16.16 25.384 16.8 24.552C17.44 23.6987 17.76 22.8133 17.76 21.896C17.76 21.064 17.504 20.4027 16.992 19.912C16.5013 19.4 15.84 19.016 15.008 18.76C14.1973 18.4827 13.3013 18.3013 12.32 18.216C11.36 18.1307 10.4107 18.088 9.472 18.088C9.06667 18.088 8.66133 18.0987 8.256 18.12C7.85067 18.12 7.46667 18.12 7.104 18.12C6.63467 19.7413 6.176 21.416 5.728 23.144C5.28 24.872 4.81067 26.568 4.32 28.232C3.68 28.232 3.12533 28.0613 2.656 27.72C2.18667 27.3787 1.952 26.9627 1.952 26.472C1.952 26.28 1.984 26.0347 2.048 25.736C2.13333 25.416 2.25067 25.0427 2.4 24.616C2.528 24.2107 2.74133 23.5387 3.04 22.6C3.36 21.6613 3.73333 20.552 4.16 19.272C4.58667 17.992 5.056 16.648 5.568 15.24C6.10133 13.8107 6.64533 12.4133 7.2 11.048C7.776 9.68267 8.34133 8.456 8.896 7.368C8.04267 7.56 7.33867 7.784 6.784 8.04C6.22933 8.296 5.792 8.52 5.472 8.712C5.152 8.904 4.90667 9 4.736 9C4.608 9 4.43733 8.92533 4.224 8.776C4.032 8.62667 3.85067 8.456 3.68 8.264C3.53067 8.072 3.456 7.90133 3.456 7.752C4.608 7.28267 5.80267 6.86667 7.04 6.504C8.27733 6.14133 9.77067 5.96 11.52 5.96C12.288 5.96 13.1307 6.024 14.048 6.152C14.9653 6.25867 15.84 6.49333 16.672 6.856C17.504 7.19733 18.1867 7.72 18.72 8.424C19.2747 9.10667 19.552 10.024 19.552 11.176C19.552 12.0933 19.3493 12.8933 18.944 13.576C18.56 14.2373 18.0373 14.8133 17.376 15.304C16.7147 15.7733 15.9893 16.168 15.2 16.488C14.4107 16.7867 13.632 17.032 12.864 17.224C14.1867 17.3947 15.2853 17.672 16.16 18.056C17.056 18.4187 17.76 18.8453 18.272 19.336C18.8053 19.8267 19.1787 20.3387 19.392 20.872C19.6267 21.384 19.744 21.8853 19.744 22.376C19.744 23.6347 19.4133 24.7653 18.752 25.768C18.0907 26.7707 17.216 27.6453 16.128 28.392C15.0613 29.1387 13.8773 29.7573 12.576 30.248C11.296 30.76 10.016 31.144 8.736 31.4C7.456 31.656 6.304 31.784 5.28 31.784ZM7.424 16.904C8.61867 16.8613 9.792 16.7227 10.944 16.488C12.096 16.2533 13.1307 15.912 14.048 15.464C14.9867 14.9947 15.7333 14.3973 16.288 13.672C16.8427 12.9253 17.12 12.008 17.12 10.92C17.12 9.896 16.8427 9.10667 16.288 8.552C15.7333 7.99733 15.008 7.61333 14.112 7.4C13.216 7.18667 12.256 7.08 11.232 7.08C11.2107 7.08 11.1893 7.08 11.168 7.08C11.1467 7.08 11.1253 7.08 11.104 7.08C10.3787 8.50933 9.71733 10.0667 9.12 11.752C8.52267 13.416 7.95733 15.1333 7.424 16.904ZM23.3725 29.96C22.4338 29.96 21.7298 29.6827 21.2605 29.128C20.7912 28.5733 20.5565 27.9013 20.5565 27.112C20.5565 26.6213 20.6418 26.0027 20.8125 25.256C20.9832 24.5093 21.2178 23.7307 21.5165 22.92C21.8365 22.088 22.1992 21.3093 22.6045 20.584C23.0098 19.8587 23.4472 19.272 23.9165 18.824C24.3858 18.3547 24.8552 18.12 25.3245 18.12C25.5805 18.12 25.8045 18.2053 25.9965 18.376C26.1885 18.5253 26.2845 18.7493 26.2845 19.048C26.2845 19.3253 26.1138 19.7413 25.7725 20.296C25.4525 20.8507 25.0685 21.4907 24.6205 22.216C24.1938 22.9413 23.8098 23.6987 23.4685 24.488C23.1485 25.256 22.9885 25.992 22.9885 26.696C22.9885 27.3787 23.1058 27.8373 23.3405 28.072C23.5965 28.2853 23.9592 28.392 24.4285 28.392C25.1538 28.392 25.9432 28.0293 26.7965 27.304C27.6498 26.5787 28.5352 25.3093 29.4525 23.496L29.9325 24.008C29.1858 25.8853 28.2365 27.3467 27.0845 28.392C25.9325 29.4373 24.6952 29.96 23.3725 29.96ZM27.1485 15.528C26.7432 15.528 26.3698 15.432 26.0285 15.24C25.7085 15.0267 25.5485 14.7067 25.5485 14.28C25.5485 13.768 25.8258 13.3307 26.3805 12.968C26.9352 12.6053 27.5112 12.424 28.1085 12.424C28.4925 12.424 28.8125 12.5093 29.0685 12.68C29.3458 12.8507 29.4845 13.16 29.4845 13.608C29.4845 14.056 29.2392 14.4933 28.7485 14.92C28.2578 15.3253 27.7245 15.528 27.1485 15.528ZM31.985 31.336C30.769 31.336 29.841 30.952 29.201 30.184C28.5823 29.4373 28.273 28.4027 28.273 27.08C28.273 26.0347 28.4543 24.7973 28.817 23.368C29.1797 21.9387 29.6597 20.4453 30.257 18.888C30.8543 17.3093 31.5157 15.7733 32.241 14.28C32.9877 12.7653 33.745 11.4 34.513 10.184C35.281 8.94667 36.0063 7.96533 36.689 7.24C37.3717 6.51467 37.9583 6.152 38.449 6.152C38.8757 6.152 39.1957 6.39733 39.409 6.888C39.6223 7.37867 39.7397 7.86933 39.761 8.36C39.761 8.95733 39.633 9.68267 39.377 10.536C39.121 11.3893 38.7583 12.296 38.289 13.256C37.8197 14.216 37.2757 15.1653 36.657 16.104C36.0383 17.0427 35.3557 17.896 34.609 18.664C33.8837 19.432 33.1263 20.04 32.337 20.488C32.1877 20.7653 31.9957 21.2453 31.761 21.928C31.5477 22.6107 31.345 23.3893 31.153 24.264C30.9823 25.1387 30.897 26.0133 30.897 26.888C30.897 27.7413 31.0143 28.4667 31.249 29.064C31.505 29.6827 31.9423 29.992 32.561 29.992C33.1157 29.992 33.713 29.736 34.353 29.224C34.993 28.712 35.5157 28.0933 35.921 27.368C35.1317 26.9413 34.5343 26.344 34.129 25.576C33.7237 24.808 33.521 23.9973 33.521 23.144C33.521 22.0987 33.7983 21.256 34.353 20.616C34.929 19.976 35.6223 19.656 36.433 19.656C37.1157 19.656 37.681 19.9227 38.129 20.456C38.577 20.968 38.801 21.768 38.801 22.856C38.801 23.4747 38.7157 24.136 38.545 24.84C38.3957 25.5227 38.161 26.2053 37.841 26.888C37.9477 26.888 38.033 26.8987 38.097 26.92C38.1823 26.92 38.289 26.92 38.417 26.92C39.1637 26.92 39.8037 26.7173 40.337 26.312C40.8703 25.9067 41.3183 25.4267 41.681 24.872C42.0437 24.3173 42.3317 23.816 42.545 23.368L43.025 24.04C42.4917 25.2987 41.8303 26.2587 41.041 26.92C40.273 27.5813 39.2597 27.912 38.001 27.912C37.8943 27.912 37.777 27.912 37.649 27.912C37.5423 27.912 37.4357 27.9013 37.329 27.88C36.7317 28.84 35.985 29.6507 35.089 30.312C34.2143 30.9947 33.1797 31.336 31.985 31.336ZM36.465 26.312C36.657 25.8853 36.7957 25.4587 36.881 25.032C36.9877 24.584 37.041 24.104 37.041 23.592C37.041 22.824 36.945 22.2587 36.753 21.896C36.5823 21.5333 36.369 21.352 36.113 21.352C35.8357 21.352 35.5903 21.544 35.377 21.928C35.185 22.312 35.089 22.7707 35.089 23.304C35.089 23.752 35.185 24.2747 35.377 24.872C35.569 25.4693 35.9317 25.9493 36.465 26.312ZM32.945 18.472C33.4783 17.9813 33.9903 17.416 34.481 16.776C34.993 16.1147 35.4623 15.432 35.889 14.728C36.337 14.0027 36.721 13.2987 37.041 12.616C37.3823 11.912 37.6597 11.2827 37.873 10.728C38.0863 10.152 38.2143 9.69333 38.257 9.352C38.257 9.30933 38.257 9.27733 38.257 9.256C38.257 9.21333 38.257 9.18133 38.257 9.16C38.065 9.224 37.745 9.53333 37.297 10.088C36.8703 10.6427 36.3797 11.368 35.825 12.264C35.2917 13.1387 34.769 14.12 34.257 15.208C33.745 16.2747 33.3077 17.3627 32.945 18.472ZM44.4708 29.96C43.4681 29.96 42.7641 29.6293 42.3588 28.968C41.9748 28.2853 41.7828 27.4853 41.7828 26.568C41.7828 25.5227 41.9748 24.296 42.3588 22.888C42.7428 21.48 43.2441 20.008 43.8628 18.472C44.5028 16.9147 45.1961 15.4 45.9427 13.928C46.7108 12.4347 47.4788 11.0907 48.2468 9.896C49.0148 8.70133 49.7188 7.752 50.3588 7.048C51.0201 6.32267 51.5534 5.96 51.9588 5.96C52.2361 5.96 52.4708 6.10933 52.6628 6.408C52.8548 6.68533 53.0041 7.02667 53.1108 7.432C53.2388 7.816 53.3028 8.17867 53.3028 8.52C53.3028 9.096 53.1534 9.85333 52.8548 10.792C52.5774 11.7093 52.1721 12.7227 51.6388 13.832C51.1268 14.9413 50.5081 16.0827 49.7828 17.256C49.0788 18.408 48.2894 19.5067 47.4148 20.552C46.5614 21.5973 45.6441 22.504 44.6628 23.272C44.5774 23.8053 44.4921 24.3387 44.4068 24.872C44.3428 25.384 44.3108 25.8533 44.3108 26.28C44.3108 27.048 44.4388 27.6133 44.6948 27.976C44.9508 28.3173 45.2814 28.488 45.6868 28.488C46.2201 28.488 46.7641 28.2427 47.3188 27.752C47.8948 27.24 48.4388 26.6 48.9508 25.832C49.4841 25.0427 49.9428 24.232 50.3268 23.4L51.0948 23.816C50.1774 25.7147 49.1534 27.2187 48.0228 28.328C46.8921 29.416 45.7081 29.96 44.4708 29.96ZM45.2388 21.288C45.9641 20.4987 46.6468 19.6453 47.2868 18.728C47.9481 17.7893 48.5454 16.84 49.0788 15.88C49.6334 14.92 50.1134 13.992 50.5188 13.096C50.9241 12.2 51.2334 11.4 51.4468 10.696C51.6814 9.97067 51.8094 9.39467 51.8308 8.968C51.8308 8.94667 51.8308 8.936 51.8308 8.936C51.8308 8.91467 51.8308 8.89333 51.8308 8.872C51.6601 8.872 51.3828 9.11733 50.9988 9.608C50.6361 10.0773 50.1988 10.728 49.6868 11.56C49.1748 12.392 48.6414 13.3413 48.0868 14.408C47.5534 15.4747 47.0308 16.6053 46.5188 17.8C46.0281 18.9733 45.6014 20.136 45.2388 21.288ZM52.1225 29.96C51.1838 29.96 50.4798 29.6827 50.0105 29.128C49.5412 28.5733 49.3065 27.9013 49.3065 27.112C49.3065 26.6213 49.3918 26.0027 49.5625 25.256C49.7332 24.5093 49.9678 23.7307 50.2665 22.92C50.5865 22.088 50.9492 21.3093 51.3545 20.584C51.7598 19.8587 52.1972 19.272 52.6665 18.824C53.1358 18.3547 53.6052 18.12 54.0745 18.12C54.3305 18.12 54.5545 18.2053 54.7465 18.376C54.9385 18.5253 55.0345 18.7493 55.0345 19.048C55.0345 19.3253 54.8638 19.7413 54.5225 20.296C54.2025 20.8507 53.8185 21.4907 53.3705 22.216C52.9438 22.9413 52.5598 23.6987 52.2185 24.488C51.8985 25.256 51.7385 25.992 51.7385 26.696C51.7385 27.3787 51.8558 27.8373 52.0905 28.072C52.3465 28.2853 52.7092 28.392 53.1785 28.392C53.9038 28.392 54.6932 28.0293 55.5465 27.304C56.3998 26.5787 57.2852 25.3093 58.2025 23.496L58.6825 24.008C57.9358 25.8853 56.9865 27.3467 55.8345 28.392C54.6825 29.4373 53.4452 29.96 52.1225 29.96ZM55.8985 15.528C55.4932 15.528 55.1198 15.432 54.7785 15.24C54.4585 15.0267 54.2985 14.7067 54.2985 14.28C54.2985 13.768 54.5758 13.3307 55.1305 12.968C55.6852 12.6053 56.2612 12.424 56.8585 12.424C57.2425 12.424 57.5625 12.5093 57.8185 12.68C58.0958 12.8507 58.2345 13.16 58.2345 13.608C58.2345 14.056 57.9892 14.4933 57.4985 14.92C57.0078 15.3253 56.4745 15.528 55.8985 15.528ZM59.487 30.024C58.527 30.024 57.8657 29.704 57.503 29.064C57.1617 28.4453 56.991 27.7627 56.991 27.016C56.991 26.3333 57.0977 25.64 57.311 24.936C57.5243 24.2107 57.8123 23.5387 58.175 22.92C58.559 22.3013 58.975 21.8107 59.423 21.448C59.8923 21.064 60.3617 20.872 60.831 20.872C60.9803 20.872 61.151 20.904 61.343 20.968C61.5563 21.0107 61.7057 21.0853 61.791 21.192C61.535 21.512 61.2683 21.9067 60.991 22.376C60.735 22.8453 60.4897 23.3467 60.255 23.88C60.0417 24.392 59.871 24.9147 59.743 25.448C59.615 25.9813 59.551 26.472 59.551 26.92C59.551 27.3467 59.6257 27.6987 59.775 27.976C59.9457 28.2533 60.2337 28.392 60.639 28.392C61.0443 28.392 61.5243 28.168 62.079 27.72C62.655 27.2507 63.199 26.7173 63.711 26.12C63.0283 25.5013 62.5377 24.8293 62.239 24.104C61.9403 23.3573 61.791 22.4613 61.791 21.416C61.791 20.968 61.8977 20.456 62.111 19.88C62.3457 19.304 62.7083 18.8027 63.199 18.376C63.711 17.9493 64.3937 17.736 65.247 17.736C66.1643 17.736 66.8043 17.992 67.167 18.504C67.551 19.016 67.743 19.624 67.743 20.328C67.743 21.1173 67.5297 22.0027 67.103 22.984C66.6977 23.9653 66.207 24.8933 65.631 25.768C65.887 25.896 66.1857 25.96 66.527 25.96C66.847 25.96 67.231 25.8853 67.679 25.736C68.127 25.5867 68.5643 25.3413 68.991 25C69.4177 24.6373 69.759 24.1573 70.015 23.56L70.591 23.976C70.1217 25.064 69.4923 25.864 68.703 26.376C67.935 26.8667 67.1777 27.112 66.431 27.112C66.1537 27.112 65.8763 27.0907 65.599 27.048C65.3217 26.984 65.0657 26.9093 64.831 26.824C64.1057 27.6773 63.2737 28.424 62.335 29.064C61.3963 29.704 60.447 30.024 59.487 30.024ZM64.543 25.096C65.055 24.3493 65.4923 23.5493 65.855 22.696C66.2177 21.8427 66.399 21.0533 66.399 20.328C66.399 19.8373 66.3243 19.4853 66.175 19.272C66.0257 19.0373 65.8017 18.92 65.503 18.92C65.0977 18.92 64.6817 19.208 64.255 19.784C63.8283 20.36 63.615 21.0853 63.615 21.96C63.615 22.408 63.6897 22.952 63.839 23.592C64.0097 24.232 64.2443 24.7333 64.543 25.096ZM86.0173 29.992C85.1853 29.992 84.5666 29.7467 84.1613 29.256C83.7559 28.7653 83.5533 28.1787 83.5533 27.496C83.5533 27.0053 83.6279 26.5147 83.7773 26.024C83.9266 25.5333 84.0759 25.0533 84.2253 24.584C84.3746 24.0933 84.4493 23.656 84.4493 23.272C84.4493 22.9093 84.3746 22.664 84.2253 22.536C84.0973 22.3867 83.9266 22.312 83.7133 22.312C83.2226 22.312 82.6466 22.6853 81.9853 23.432C81.3453 24.1787 80.5453 25.2667 79.5853 26.696C79.2439 27.208 78.9239 27.752 78.6253 28.328C78.3266 28.8827 78.0599 29.352 77.8253 29.736C77.6333 29.736 77.3773 29.704 77.0573 29.64C76.7586 29.576 76.4919 29.48 76.2573 29.352C76.0226 29.2453 75.9053 29.096 75.9053 28.904C75.9053 28.712 76.0119 28.3387 76.2253 27.784C76.4386 27.2293 76.6839 26.5893 76.9613 25.864C77.2386 25.1173 77.4839 24.392 77.6973 23.688C77.9106 22.9627 78.0173 22.3547 78.0173 21.864C78.0173 21.5653 77.9639 21.3307 77.8573 21.16C77.7506 20.9893 77.5799 20.904 77.3453 20.904C76.8973 20.904 76.3533 21.1707 75.7133 21.704C75.0946 22.2373 74.4333 22.9413 73.7293 23.816C73.0466 24.6693 72.3959 25.6293 71.7773 26.696C71.1799 27.7413 70.6893 28.7973 70.3053 29.864C70.0706 29.864 69.7826 29.8107 69.4413 29.704C69.0999 29.6187 68.8012 29.5013 68.5452 29.352C68.2892 29.224 68.1612 29.1067 68.1612 29C68.1612 28.9787 68.2359 28.68 68.3852 28.104C68.5346 27.5067 68.7159 26.7707 68.9292 25.896C69.1426 25.0213 69.3666 24.1253 69.6013 23.208C69.8359 22.2907 70.0386 21.4907 70.2093 20.808C70.2733 20.5733 70.5079 20.3707 70.9133 20.2C71.3186 20.008 71.6706 19.912 71.9693 19.912C72.2679 19.912 72.5239 20.008 72.7373 20.2C72.9506 20.392 73.0573 20.648 73.0573 20.968C73.0573 21.1813 73.0146 21.4907 72.9293 21.896C72.8439 22.3013 72.7373 22.76 72.6093 23.272C73.0573 22.6747 73.5266 22.088 74.0173 21.512C74.5293 20.9147 75.0519 20.3813 75.5853 19.912C76.1399 19.4427 76.6839 19.0693 77.2173 18.792C77.7719 18.5147 78.3159 18.376 78.8493 18.376C79.6386 18.376 80.1719 18.664 80.4493 19.24C80.7266 19.7947 80.8653 20.4027 80.8653 21.064C80.8653 21.3413 80.8439 21.6187 80.8013 21.896C80.7586 22.152 80.6946 22.4187 80.6093 22.696C80.5453 22.952 80.4493 23.2613 80.3213 23.624C80.7266 23.0267 81.1639 22.4827 81.6333 21.992C82.1239 21.48 82.6466 21.0747 83.2013 20.776C83.7559 20.4773 84.3426 20.328 84.9613 20.328C85.7933 20.328 86.3693 20.584 86.6893 21.096C87.0093 21.5867 87.1693 22.1307 87.1693 22.728C87.1693 23.2827 87.0733 23.8693 86.8813 24.488C86.7106 25.0853 86.5293 25.6613 86.3373 26.216C86.1666 26.7493 86.0813 27.208 86.0813 27.592C86.0813 27.8053 86.1346 28.008 86.2413 28.2C86.3479 28.3707 86.5613 28.456 86.8813 28.456C87.4573 28.456 88.0119 28.1893 88.5453 27.656C89.0786 27.1227 89.5693 26.472 90.0173 25.704C90.4866 24.9147 90.8813 24.168 91.2013 23.464L91.7453 24.136C91.4039 25.0107 90.9559 25.9067 90.4013 26.824C89.8679 27.72 89.2386 28.4667 88.5133 29.064C87.7879 29.6827 86.9559 29.992 86.0173 29.992ZM92.1983 30.504C91.4943 30.504 90.8863 30.2693 90.3742 29.8C89.8409 29.3307 89.5742 28.6267 89.5742 27.688C89.5742 26.9413 89.7449 26.1307 90.0862 25.256C90.4276 24.3813 90.8969 23.5173 91.4943 22.664C92.0916 21.8107 92.7743 21.0427 93.5423 20.36C94.3103 19.656 95.1316 19.0907 96.0063 18.664C96.8809 18.2373 97.7556 18.024 98.6302 18.024C99.5476 18.024 100.326 18.2587 100.966 18.728C101.606 19.1973 101.926 19.816 101.926 20.584C101.926 21.16 101.724 21.576 101.318 21.832C100.913 22.088 100.433 22.1627 99.8783 22.056C99.9209 21.864 99.9529 21.672 99.9743 21.48C100.017 21.288 100.038 21.0853 100.038 20.872C100.038 20.4453 99.9529 20.0613 99.7823 19.72C99.6116 19.3787 99.2489 19.208 98.6943 19.208C98.0969 19.208 97.4889 19.4107 96.8703 19.816C96.2516 20.2213 95.6543 20.7547 95.0783 21.416C94.5236 22.056 94.0223 22.7707 93.5743 23.56C93.1263 24.328 92.7743 25.0853 92.5182 25.832C92.2623 26.5787 92.1343 27.2507 92.1343 27.848C92.1343 28.5307 92.3796 28.872 92.8703 28.872C93.3609 28.872 93.9049 28.6373 94.5023 28.168C95.0996 27.6773 95.6969 27.0693 96.2943 26.344C96.9129 25.6187 97.4996 24.8827 98.0543 24.136C98.6089 23.368 99.0889 22.7173 99.4943 22.184C99.5583 22.0773 99.6436 22.024 99.7503 22.024C99.8356 22.0453 99.9956 22.0987 100.23 22.184C100.486 22.248 100.721 22.3547 100.934 22.504C101.148 22.6533 101.254 22.8453 101.254 23.08C101.254 23.2933 101.158 23.5707 100.966 23.912C100.796 24.232 100.582 24.5947 100.326 25C100.092 25.384 99.8783 25.7787 99.6863 26.184C99.5156 26.568 99.4303 26.9413 99.4303 27.304C99.4303 27.5813 99.5049 27.848 99.6543 28.104C99.8036 28.3387 100.049 28.456 100.39 28.456C100.902 28.456 101.617 28.0827 102.534 27.336C103.473 26.568 104.422 25.2773 105.382 23.464L105.99 24.072C105.478 25.224 104.86 26.248 104.134 27.144C103.43 28.0187 102.684 28.7013 101.894 29.192C101.105 29.704 100.305 29.96 99.4943 29.96C98.6196 29.96 97.9689 29.6827 97.5423 29.128C97.1156 28.5733 96.8809 27.976 96.8383 27.336C96.8383 27.2933 96.8383 27.2613 96.8383 27.24C96.8383 27.2187 96.8383 27.1973 96.8383 27.176C95.9849 28.2 95.1956 29.0107 94.4703 29.608C93.7663 30.2053 93.0089 30.504 92.1983 30.504ZM115.409 29.64C114.577 29.64 113.937 29.4267 113.489 29C113.062 28.5947 112.849 28.072 112.849 27.432C112.849 27.0053 112.924 26.5573 113.073 26.088C113.222 25.5973 113.372 25.1067 113.521 24.616C113.67 24.1253 113.745 23.656 113.745 23.208C113.745 22.7387 113.628 22.4187 113.393 22.248C113.18 22.056 112.924 21.96 112.625 21.96C111.985 21.96 111.324 22.2267 110.641 22.76C109.98 23.272 109.329 23.9227 108.689 24.712C108.07 25.5013 107.484 26.3227 106.929 27.176C106.374 28.0293 105.894 28.7973 105.489 29.48C105.084 29.48 104.7 29.4053 104.337 29.256C103.974 29.128 103.665 28.8933 103.409 28.552C103.43 28.4453 103.558 28.1253 103.793 27.592C104.006 27.0373 104.252 26.3867 104.529 25.64C104.806 24.872 105.052 24.072 105.265 23.24C105.478 22.408 105.585 21.6507 105.585 20.968C105.734 20.7973 105.958 20.6267 106.257 20.456C106.577 20.2853 106.908 20.2 107.249 20.2C107.996 20.2 108.369 20.52 108.369 21.16C108.369 21.416 108.316 21.8 108.209 22.312C108.124 22.8027 107.996 23.368 107.825 24.008C108.38 23.2613 108.988 22.5573 109.649 21.896C110.31 21.2347 110.993 20.7013 111.697 20.296C112.422 19.8693 113.148 19.656 113.873 19.656C114.79 19.656 115.462 19.9653 115.889 20.584C116.337 21.2027 116.561 21.8853 116.561 22.632C116.561 23.272 116.454 23.8693 116.241 24.424C116.028 24.9787 115.814 25.5013 115.601 25.992C115.409 26.4827 115.313 26.9627 115.313 27.432C115.313 27.7733 115.388 28.0187 115.537 28.168C115.708 28.296 115.889 28.36 116.081 28.36C116.593 28.36 117.126 28.1147 117.681 27.624C118.236 27.1333 118.758 26.5147 119.249 25.768C119.761 25 120.209 24.232 120.593 23.464L121.137 23.912C120.689 24.9573 120.177 25.9173 119.601 26.792C119.046 27.6453 118.417 28.3387 117.713 28.872C117.03 29.384 116.262 29.64 115.409 29.64ZM122.31 29.96C121.371 29.96 120.667 29.6827 120.198 29.128C119.729 28.5733 119.494 27.9013 119.494 27.112C119.494 26.6213 119.579 26.0027 119.75 25.256C119.921 24.5093 120.155 23.7307 120.454 22.92C120.774 22.088 121.137 21.3093 121.542 20.584C121.947 19.8587 122.385 19.272 122.854 18.824C123.323 18.3547 123.793 18.12 124.262 18.12C124.518 18.12 124.742 18.2053 124.934 18.376C125.126 18.5253 125.222 18.7493 125.222 19.048C125.222 19.3253 125.051 19.7413 124.71 20.296C124.39 20.8507 124.006 21.4907 123.558 22.216C123.131 22.9413 122.747 23.6987 122.406 24.488C122.086 25.256 121.926 25.992 121.926 26.696C121.926 27.3787 122.043 27.8373 122.278 28.072C122.534 28.2853 122.897 28.392 123.366 28.392C124.091 28.392 124.881 28.0293 125.734 27.304C126.587 26.5787 127.473 25.3093 128.39 23.496L128.87 24.008C128.123 25.8853 127.174 27.3467 126.022 28.392C124.87 29.4373 123.633 29.96 122.31 29.96ZM126.086 15.528C125.681 15.528 125.307 15.432 124.966 15.24C124.646 15.0267 124.486 14.7067 124.486 14.28C124.486 13.768 124.763 13.3307 125.318 12.968C125.873 12.6053 126.449 12.424 127.046 12.424C127.43 12.424 127.75 12.5093 128.006 12.68C128.283 12.8507 128.422 13.16 128.422 13.608C128.422 14.056 128.177 14.4933 127.686 14.92C127.195 15.3253 126.662 15.528 126.086 15.528ZM129.355 30.504C128.651 30.504 128.043 30.2693 127.53 29.8C126.997 29.3307 126.73 28.6267 126.73 27.688C126.73 26.9413 126.901 26.1307 127.242 25.256C127.584 24.3813 128.053 23.5173 128.651 22.664C129.248 21.8107 129.931 21.0427 130.699 20.36C131.467 19.656 132.288 19.0907 133.163 18.664C134.037 18.2373 134.912 18.024 135.786 18.024C136.704 18.024 137.483 18.2587 138.123 18.728C138.763 19.1973 139.083 19.816 139.083 20.584C139.083 21.16 138.88 21.576 138.475 21.832C138.069 22.088 137.589 22.1627 137.035 22.056C137.077 21.864 137.109 21.672 137.131 21.48C137.173 21.288 137.195 21.0853 137.195 20.872C137.195 20.4453 137.109 20.0613 136.939 19.72C136.768 19.3787 136.405 19.208 135.851 19.208C135.253 19.208 134.645 19.4107 134.027 19.816C133.408 20.2213 132.811 20.7547 132.235 21.416C131.68 22.056 131.179 22.7707 130.731 23.56C130.283 24.328 129.931 25.0853 129.674 25.832C129.419 26.5787 129.291 27.2507 129.291 27.848C129.291 28.5307 129.536 28.872 130.027 28.872C130.517 28.872 131.061 28.6373 131.659 28.168C132.256 27.6773 132.853 27.0693 133.451 26.344C134.069 25.6187 134.656 24.8827 135.211 24.136C135.765 23.368 136.245 22.7173 136.651 22.184C136.715 22.0773 136.8 22.024 136.907 22.024C136.992 22.0453 137.152 22.0987 137.387 22.184C137.643 22.248 137.877 22.3547 138.091 22.504C138.304 22.6533 138.411 22.8453 138.411 23.08C138.411 23.2933 138.315 23.5707 138.123 23.912C137.952 24.232 137.739 24.5947 137.483 25C137.248 25.384 137.035 25.7787 136.843 26.184C136.672 26.568 136.587 26.9413 136.587 27.304C136.587 27.5813 136.661 27.848 136.811 28.104C136.96 28.3387 137.205 28.456 137.547 28.456C138.059 28.456 138.773 28.0827 139.691 27.336C140.629 26.568 141.579 25.2773 142.539 23.464L143.147 24.072C142.635 25.224 142.016 26.248 141.291 27.144C140.587 28.0187 139.84 28.7013 139.051 29.192C138.261 29.704 137.461 29.96 136.651 29.96C135.776 29.96 135.125 29.6827 134.699 29.128C134.272 28.5733 134.037 27.976 133.995 27.336C133.995 27.2933 133.995 27.2613 133.995 27.24C133.995 27.2187 133.995 27.1973 133.995 27.176C133.141 28.2 132.352 29.0107 131.627 29.608C130.923 30.2053 130.165 30.504 129.355 30.504Z" fill="white"/>
</svg>
